HIERARCHY
ROOT Hips
{
	OFFSET 0.000000 35.082581 0.000000
	CHANNELS 6 Xposition Yposition Zposition Xrotation Yrotation Zrotation 
	JOINT Spine
	{
		OFFSET 0.000000 6.876099 0.125700
		CHANNELS 3 Xrotation Yrotation Zrotation
		JOINT Spine1
		{
			OFFSET 0.000000 5.730043 0.104720
			CHANNELS 3 Xrotation Yrotation Zrotation
			JOINT Spine1_split
			{
				OFFSET 0.000000 5.730043 0.104720
				CHANNELS 3 Xrotation Yrotation Zrotation
				JOINT Spine2
				{
					OFFSET 0.000000 5.730043 0.104720
					CHANNELS 3 Xrotation Yrotation Zrotation
					JOINT Neck
					{
						OFFSET 0.000000 10.314075 0.188496
						CHANNELS 3 Xrotation Yrotation Zrotation
						JOINT Head
						{
							OFFSET 0.000000 7.643700 -2.377400
							CHANNELS 3 Xrotation Yrotation Zrotation
							JOINT HeadTop_End
							{
								OFFSET 0.000000 43.788605 -13.619600
								CHANNELS 3 Xrotation Yrotation Zrotation
								End Site
								{
									OFFSET 0.000000 0.000000 0.000000
								}
							}
						}
					}
					JOINT LeftShoulder
					{
						OFFSET 2.196100 4.412489 0.087492
						CHANNELS 3 Xrotation Yrotation Zrotation
						JOINT LeftShoulder_split
						{
							OFFSET 2.196100 4.412489 0.087492
							CHANNELS 3 Xrotation Yrotation Zrotation
							JOINT LeftArm
							{
								OFFSET 8.771219 -2.981674 -0.026999
								CHANNELS 3 Xrotation Yrotation Zrotation
								JOINT LeftForeArm
								{
									OFFSET 8.512804 0.000000 -0.000000
									CHANNELS 3 Xrotation Yrotation Zrotation
									JOINT LeftHand
									{
										OFFSET 18.484802 0.000000 -0.000000
										CHANNELS 3 Xrotation Yrotation Zrotation
										JOINT LeftHandThumb1
										{
											OFFSET 2.499420 -1.158070 2.653252
											CHANNELS 3 Xrotation Yrotation Zrotation
											JOINT LeftHandThumb2
											{
												OFFSET 2.370079 -1.368366 1.368366
												CHANNELS 3 Xrotation Yrotation Zrotation
												JOINT LeftHandThumb3
												{
													OFFSET 2.676727 -1.545410 1.545409
													CHANNELS 3 Xrotation Yrotation Zrotation
													JOINT LeftHandThumb4
													{
														OFFSET 1.692226 -0.977005 0.977007
														CHANNELS 3 Xrotation Yrotation Zrotation
														End Site
														{
															OFFSET 0.000000 0.000000 0.000000
														}
													}
												}
											}
										}
										JOINT LeftHandIndex1
										{
											OFFSET 7.924831 -0.457527 2.345128
											CHANNELS 3 Xrotation Yrotation Zrotation
											JOINT LeftHandIndex2
											{
												OFFSET 3.643303 0.000000 0.000000
												CHANNELS 3 Xrotation Yrotation Zrotation
												JOINT LeftHandIndex3
												{
													OFFSET 3.810799 0.000000 0.000000
													CHANNELS 3 Xrotation Yrotation Zrotation
													JOINT LeftHandIndex4
													{
														OFFSET 2.403702 0.000000 0.000000
														CHANNELS 3 Xrotation Yrotation Zrotation
														End Site
														{
															OFFSET 0.000000 0.000000 0.000000
														}
													}
												}
											}
										}
										JOINT LeftHandMiddle1
										{
											OFFSET 8.563995 0.000000 -0.000000
											CHANNELS 3 Xrotation Yrotation Zrotation
											JOINT LeftHandMiddle2
											{
												OFFSET 3.861618 0.000000 0.000000
												CHANNELS 3 Xrotation Yrotation Zrotation
												JOINT LeftHandMiddle3
												{
													OFFSET 3.701603 0.000000 0.000000
													CHANNELS 3 Xrotation Yrotation Zrotation
													JOINT LeftHandMiddle4
													{
														OFFSET 2.322544 0.000000 0.000000
														CHANNELS 3 Xrotation Yrotation Zrotation
														End Site
														{
															OFFSET 0.000000 0.000000 0.000000
														}
													}
												}
											}
										}
										JOINT LeftHandRing1
										{
											OFFSET 8.426460 -0.424637 -3.286992
											CHANNELS 3 Xrotation Yrotation Zrotation
											JOINT LeftHandRing2
											{
												OFFSET 3.126408 0.000000 0.000000
												CHANNELS 3 Xrotation Yrotation Zrotation
												JOINT LeftHandRing3
												{
													OFFSET 3.085026 0.000000 0.000000
													CHANNELS 3 Xrotation Yrotation Zrotation
													JOINT LeftHandRing4
													{
														OFFSET 1.644005 0.000000 0.000000
														CHANNELS 3 Xrotation Yrotation Zrotation
														End Site
														{
															OFFSET 0.000000 0.000000 0.000000
														}
													}
												}
											}
										}
									}
								}
							}
						}
					}
					JOINT RightShoulder
					{
						OFFSET -2.196100 4.412496 0.070690
						CHANNELS 3 Xrotation Yrotation Zrotation
						JOINT RightShoulder_split
						{
							OFFSET -2.196100 4.412496 0.070690
							CHANNELS 3 Xrotation Yrotation Zrotation
							JOINT RightArm
							{
								OFFSET -8.771282 -2.981682 -0.094208
								CHANNELS 3 Xrotation Yrotation Zrotation
								JOINT RightForeArm
								{
									OFFSET -8.494598 0.000000 0.000000
									CHANNELS 3 Xrotation Yrotation Zrotation
									JOINT RightHand
									{
										OFFSET -18.483803 0.000000 0.000001
										CHANNELS 3 Xrotation Yrotation Zrotation
										JOINT RightHandThumb1
										{
											OFFSET -2.527351 -1.008072 2.575253
											CHANNELS 3 Xrotation Yrotation Zrotation
											JOINT RightHandThumb2
											{
												OFFSET -2.321518 -1.340328 1.340329
												CHANNELS 3 Xrotation Yrotation Zrotation
												JOINT RightHandThumb3
												{
													OFFSET -2.657753 -1.534454 1.534455
													CHANNELS 3 Xrotation Yrotation Zrotation
													JOINT RightHandThumb4
													{
														OFFSET -1.807510 -1.043568 1.043567
														CHANNELS 3 Xrotation Yrotation Zrotation
														End Site
														{
															OFFSET 0.000000 0.000000 0.000000
														}
													}
												}
											}
										}
										JOINT RightHandIndex1
										{
											OFFSET -8.811420 0.015533 2.887987
											CHANNELS 3 Xrotation Yrotation Zrotation
											JOINT RightHandIndex2
											{
												OFFSET -3.537502 0.000000 0.000000
												CHANNELS 3 Xrotation Yrotation Zrotation
												JOINT RightHandIndex3
												{
													OFFSET -3.356201 0.000000 0.000000
													CHANNELS 3 Xrotation Yrotation Zrotation
													JOINT RightHandIndex4
													{
														OFFSET -1.933098 0.000000 0.000000
														CHANNELS 3 Xrotation Yrotation Zrotation
														End Site
														{
															OFFSET 0.000000 0.000000 0.000000
														}
													}
												}
											}
										}
										JOINT RightHandMiddle1
										{
											OFFSET -8.178135 0.000000 0.000000
											CHANNELS 3 Xrotation Yrotation Zrotation
											JOINT RightHandMiddle2
											{
												OFFSET -3.901302 0.000000 0.000000
												CHANNELS 3 Xrotation Yrotation Zrotation
												JOINT RightHandMiddle3
												{
													OFFSET -3.909599 0.000000 0.000000
													CHANNELS 3 Xrotation Yrotation Zrotation
													JOINT RightHandMiddle4
													{
														OFFSET -2.376003 0.000000 0.000000
														CHANNELS 3 Xrotation Yrotation Zrotation
														End Site
														{
															OFFSET 0.000000 0.000000 0.000000
														}
													}
												}
											}
										}
										JOINT RightHandRing1
										{
											OFFSET -7.559013 0.014137 -2.865403
											CHANNELS 3 Xrotation Yrotation Zrotation
											JOINT RightHandRing2
											{
												OFFSET -3.449306 0.000000 0.000000
												CHANNELS 3 Xrotation Yrotation Zrotation
												JOINT RightHandRing3
												{
													OFFSET -3.362106 0.000000 0.000000
													CHANNELS 3 Xrotation Yrotation Zrotation
													JOINT RightHandRing4
													{
														OFFSET -2.076401 0.000000 0.000000
														CHANNELS 3 Xrotation Yrotation Zrotation
														End Site
														{
															OFFSET 0.000000 0.000000 0.000000
														}
													}
												}
											}
										}
									}
								}
							}
						}
					}
				}
			}
		}
	}
	JOINT LeftUpLeg
	{
		OFFSET 10.205400 -3.823500 0.155100
		CHANNELS 3 Xrotation Yrotation Zrotation
		JOINT LeftLeg
		{
			OFFSET 0.708757 -12.982077 0.567790
			CHANNELS 3 Xrotation Yrotation Zrotation
			JOINT LeftFoot
			{
				OFFSET -0.708756 -10.717838 -2.184338
				CHANNELS 3 Xrotation Yrotation Zrotation
				JOINT LeftToeBase
				{
					OFFSET 0.108149 -7.191104 7.560241
					CHANNELS 3 Xrotation Yrotation Zrotation
					JOINT LeftToe_End
					{
						OFFSET 0.070230 0.081724 4.490308
						CHANNELS 3 Xrotation Yrotation Zrotation
						End Site
						{
							OFFSET 0.000000 0.000000 0.000000
						}
					}
				}
			}
		}
	}
	JOINT RightUpLeg
	{
		OFFSET -10.205400 -3.823500 0.005500
		CHANNELS 3 Xrotation Yrotation Zrotation
		JOINT RightLeg
		{
			OFFSET -0.708756 -12.982134 0.610632
			CHANNELS 3 Xrotation Yrotation Zrotation
			JOINT RightFoot
			{
				OFFSET 0.708754 -10.717769 -1.945823
				CHANNELS 3 Xrotation Yrotation Zrotation
				JOINT RightToeBase
				{
					OFFSET -0.108140 -7.191069 7.372968
					CHANNELS 3 Xrotation Yrotation Zrotation
					JOINT RightToe_End
					{
						OFFSET -0.070227 0.081735 4.479403
						CHANNELS 3 Xrotation Yrotation Zrotation
						End Site
						{
							OFFSET 0.000000 0.000000 0.000000
						}
					}
				}
			}
		}
	}
}
MOTION
Frames: 5
Frame Time: 0.016667
1.776653 18.568911 -8.411449 35.879667 -0.863656 2.427575 11.089627 0.924364 -2.459281 22.176808 0.436128 -4.312042 0.000000 0.000000 0.000000 22.176803 0.436130 -4.312044 -24.273809 -2.101649 -0.458651 -32.969890 -5.781655 3.191220 0.000004 -0.000000 0.000000 0.640947 -3.294368 -0.953796 0.000000 0.000000 0.000000 -15.835092 -34.689978 -16.373893 4.580954 -102.085319 2.759675 44.263277 29.883567 20.699399 11.125180 -10.607982 5.635049 13.047546 13.035026 -0.568272 0.000004 0.000008 -0.000007 -0.000000 0.000002 -0.000000 2.762755 -9.722648 -4.298510 -0.735001 0.012649 -24.937161 -0.000005 0.000001 -0.000010 0.000001 0.000002 0.000001 0.691161 0.688883 -10.668320 -1.829438 -2.017364 -30.196031 -0.000007 0.000000 -0.000003 -0.000001 0.000002 0.000000 0.170510 9.516317 -23.800786 -0.026568 -3.190982 -36.374808 -0.000006 -0.000000 -0.000003 0.000000 0.000001 -0.000000 5.833078 29.728016 10.839905 0.000000 0.000000 0.000000 -38.904355 17.802014 21.911283 10.180183 60.700342 -18.967919 39.144914 -25.749537 -58.258099 -28.903100 10.876005 -5.700008 1.644025 -0.336611 -1.627240 0.000010 -0.000011 -0.000012 0.000001 0.000000 -0.000000 -1.509175 6.134598 4.269188 0.284810 -2.247842 5.347502 0.000009 0.000000 -0.000002 0.000001 -0.000000 -0.000001 -0.686657 -1.935913 4.591090 -0.718853 0.493059 15.506160 0.000011 0.000001 0.000006 -0.000002 -0.000000 -0.000001 2.037199 -12.730994 11.026379 0.036373 2.329722 17.761654 0.000008 -0.000002 0.000011 0.000002 0.000001 0.000001 -71.455759 -3.800075 42.800831 130.246680 -17.741751 -4.022423 -64.024226 -11.916190 -14.803404 -29.804261 0.525370 -1.193128 -0.000000 -0.000003 -0.000000 -103.608697 -3.455322 -15.414608 143.491305 13.117284 -0.111824 -46.386297 5.134172 -15.731235 -40.776100 -0.185241 -1.536634 -0.000000 -0.000000 -0.000000 
2.055747 17.833355 -8.794098 37.279763 0.554269 2.300262 10.530138 0.981363 -2.431241 21.050940 0.321394 -3.994274 0.000000 0.000000 0.000000 21.050940 0.321396 -3.994275 -21.738768 -2.217309 -0.825593 -34.315659 -6.604941 3.109563 0.000003 0.000000 0.000000 0.343001 -2.949970 -1.792663 0.000000 0.000000 0.000000 -16.403970 -37.051276 -18.318934 2.482800 -100.497580 0.139145 47.566414 27.305990 17.670586 11.188560 -11.111373 6.012800 11.620598 14.042183 -0.106131 -0.000001 0.000012 -0.000006 -0.000004 0.000003 -0.000002 3.446695 -9.799946 -1.845130 -0.760094 -0.016565 -25.262891 -0.000006 0.000002 -0.000010 0.000002 -0.000002 0.000004 0.747683 0.207632 -8.580248 -1.876525 -2.032488 -30.535146 -0.000008 0.000001 -0.000004 0.000000 -0.000001 0.000002 0.085822 9.613146 -22.173787 -0.014837 -3.214895 -36.633829 -0.000006 0.000001 -0.000003 -0.000000 -0.000000 0.000000 5.774399 29.321381 12.382909 0.000000 0.000000 0.000000 -39.766113 19.774438 22.445574 8.302422 57.691657 -16.019541 40.345258 -23.597504 -59.666258 -31.298188 12.346672 -7.537870 1.803082 -0.055146 -1.277177 0.000006 -0.000004 -0.000008 0.000001 -0.000000 0.000001 -1.571553 6.221605 2.837447 0.274701 -2.142576 6.406115 0.000011 0.000001 0.000001 -0.000000 0.000000 0.000001 -0.726563 -1.842132 4.353594 -0.734666 0.515553 15.825685 0.000011 0.000002 0.000006 0.000000 -0.000000 0.000001 2.017717 -12.871186 10.562707 0.036060 2.354629 18.021459 0.000007 0.000001 0.000011 -0.000000 -0.000002 -0.000001 -64.673094 -1.098731 45.988753 128.935844 -23.206737 -5.348804 -69.895607 -11.824052 -14.694860 -30.881638 0.389199 -1.463118 0.000002 0.000002 -0.000000 -108.823587 2.574893 -17.362858 146.680621 16.660172 1.153691 -43.910805 4.424931 -14.636344 -41.810337 0.175717 -2.344921 -0.000002 -0.000000 -0.000000 
2.227218 17.188511 -9.059961 38.542553 1.879335 2.153060 9.890759 0.973919 -2.341040 19.767522 0.228246 -3.621572 0.000000 0.000000 0.000000 19.767495 0.228247 -3.621571 -19.301406 -2.327292 -1.169202 -35.559730 -7.352562 3.025418 0.000003 -0.000000 0.000000 0.020297 -2.572770 -2.855814 0.000000 0.000000 0.000000 -17.018345 -39.190485 -20.988082 0.982748 -97.925105 -1.973373 50.723522 23.806812 15.248153 11.263528 -11.681004 6.443929 9.567414 15.252089 0.466266 0.000001 0.000009 -0.000008 -0.000001 -0.000000 -0.000004 4.242351 -9.839370 0.880833 -0.788979 -0.049308 -25.632411 -0.000009 0.000003 -0.000008 0.000003 0.000002 0.000001 0.850829 -0.260211 -6.350882 -1.929587 -2.048768 -30.911971 -0.000008 -0.000004 -0.000002 0.000001 -0.000001 0.000001 0.007478 9.769571 -20.426806 -0.002235 -3.242811 -36.940122 -0.000004 -0.000001 -0.000003 -0.000000 -0.000000 0.000000 5.824627 28.867791 13.884165 0.000000 0.000000 0.000000 -39.853105 20.536077 22.693080 6.574755 55.607739 -13.152800 41.209994 -21.195272 -61.261169 -33.487045 13.898107 -9.125726 2.049879 0.409628 -0.803320 0.000008 -0.000003 -0.000010 0.000000 -0.000000 0.000001 -1.697773 6.426642 1.495232 0.265360 -2.026628 7.570315 0.000011 0.000001 0.000000 0.000001 -0.000001 -0.000001 -0.774788 -1.732068 4.150761 -0.747661 0.537070 16.125686 0.000010 0.000002 0.000006 -0.000001 0.000000 0.000001 1.998269 -12.963667 10.222193 0.036651 2.380252 18.283452 0.000008 0.000001 0.000013 -0.000001 0.000000 -0.000001 -61.895536 -0.112916 48.341180 128.310008 -27.054687 -6.374510 -72.371448 -12.753454 -14.605741 -31.475745 0.137988 -1.640672 0.000002 -0.000003 -0.000000 -112.782467 7.960641 -19.531015 149.223487 20.423106 2.344791 -41.929346 4.190730 -14.319528 -41.654899 0.257013 -2.698166 -0.000000 -0.000000 0.000000 
2.277489 16.722015 -9.096716 39.654384 3.071618 1.992616 9.212592 0.922078 -2.181192 18.408710 0.142229 -3.175028 0.000000 0.000000 0.000000 18.408705 0.142229 -3.175023 -17.035904 -2.424129 -1.481489 -36.678727 -8.013695 2.944159 -0.000001 0.000000 0.000000 -0.284229 -2.135479 -4.160719 0.000000 0.000000 0.000000 -17.677317 -40.741911 -24.178902 -0.080623 -94.687896 -3.562109 53.370197 19.581263 13.653760 11.343345 -12.273136 6.899989 6.708301 16.475110 1.460198 -0.000001 0.000013 -0.000001 -0.000004 -0.000000 -0.000002 5.234329 -9.820470 4.263355 -0.819177 -0.080983 -26.000234 -0.000009 0.000001 -0.000011 0.000001 0.000001 -0.000001 1.074203 -0.481001 -4.034335 -1.984928 -2.064387 -31.305107 -0.000009 -0.000001 -0.000001 -0.000002 -0.000001 0.000001 -0.066315 10.084465 -18.359072 0.011137 -3.271440 -37.253402 -0.000006 -0.000000 -0.000003 -0.000000 -0.000000 0.000000 5.973626 28.508233 15.261349 0.000000 0.000000 0.000000 -39.460571 20.823676 22.407602 5.371271 54.315655 -10.616660 41.903945 -19.438141 -62.692783 -34.145625 14.695649 -8.490541 2.362736 0.806160 -0.204920 0.000006 -0.000004 -0.000010 -0.000001 -0.000001 0.000003 -1.881061 6.920220 0.918377 0.258625 -1.909427 8.741237 0.000009 0.000001 0.000001 -0.000000 -0.000001 -0.000001 -0.827267 -1.607673 4.041272 -0.757721 0.556761 16.394291 0.000011 0.000002 0.000005 -0.000001 -0.000000 -0.000000 1.986216 -12.991873 10.062149 0.038639 2.401864 18.499130 0.000008 0.000000 0.000014 -0.000000 -0.000000 0.000002 -63.446003 -1.131218 49.346279 129.832539 -28.280863 -6.740750 -72.529997 -14.558693 -14.334072 -31.513342 -0.218564 -1.703791 0.000001 0.000001 0.000000 -112.495538 10.894029 -22.470281 151.387755 23.929242 3.401175 -43.857751 5.113706 -15.703749 -40.888815 -0.103393 -2.531059 0.000000 -0.000000 0.000000 
2.315427 16.375164 -9.055178 40.600069 4.104509 1.835547 8.556479 0.845233 -2.002543 17.095393 0.064672 -2.736922 0.000000 0.000000 0.000000 17.095417 0.064674 -2.736920 -15.016714 -2.509811 -1.755168 -37.648313 -8.578238 2.868689 0.000000 -0.000000 -0.000000 -0.567133 -1.709445 -5.503890 0.000000 0.000000 0.000000 -18.354335 -41.817229 -27.529786 -1.638022 -91.255746 -5.525422 55.687779 15.065948 12.510601 11.424718 -12.848196 7.347243 4.226749 17.641586 2.407555 -0.000000 0.000008 -0.000007 -0.000005 0.000000 -0.000006 6.092090 -9.770641 7.019486 -0.850061 -0.112094 -26.367909 -0.000008 0.000000 -0.000007 -0.000003 -0.000002 0.000001 1.283375 -0.659549 -2.204188 -2.039259 -2.080120 -31.692809 -0.000010 -0.000000 -0.000002 0.000002 -0.000002 0.000001 -0.121731 10.358965 -16.666643 0.024158 -3.299013 -37.555747 -0.000008 0.000001 -0.000003 0.000002 -0.000000 -0.000000 6.177844 28.203612 16.491191 0.000000 0.000000 0.000000 -38.931508 21.004809 21.886964 4.302039 53.106165 -8.182246 42.675702 -17.800086 -63.031670 -34.384169 15.215915 -7.255198 2.707255 1.049698 0.347493 0.000009 -0.000012 -0.000014 0.000001 0.000002 0.000001 -2.083281 7.469550 0.567352 0.252212 -1.796267 9.867641 0.000009 0.000001 -0.000001 0.000001 -0.000000 -0.000001 -0.883125 -1.485262 3.911118 -0.767140 0.575786 16.654023 0.000010 0.000002 0.000006 0.000000 -0.000000 -0.000001 1.975661 -13.019091 9.842442 0.040812 2.422167 18.700407 0.000009 -0.000001 0.000011 -0.000001 -0.000001 0.000001 -66.466203 -2.673044 49.608661 132.024743 -28.097525 -6.725020 -71.954486 -16.493717 -14.184645 -31.341218 -0.568482 -1.715112 0.000001 0.000001 0.000001 -109.556084 12.482921 -26.640805 152.994229 28.160120 4.626475 -47.241570 7.186940 -18.580766 -39.830112 -0.480291 -2.159667 -0.000000 0.000000 0.000000 
